<svg width="800" height="800" viewBox="0 0 24 24" fill="none" xmlns="http://www.w3.org/2000/svg">
  <path d="M10.7 3.4h2.6l.5 2.3c.5.2.9.4 1.3.7l2.2-.7 1.3 2.2-1.7 1.6c.1.5.1 1 .1 1.5s0 1-.1 1.5l1.7 1.6-1.3 2.2-2.2-.7c-.4.3-.8.5-1.3.7l-.5 2.3h-2.6l-.5-2.3c-.5-.2-.9-.4-1.3-.7l-2.2.7-1.3-2.2 1.7-1.6C7 12 7 11.5 7 11s0-1 .1-1.5L5.4 7.9l1.3-2.2 2.2.7c.4-.3.8-.5 1.3-.7l.5-2.3Z" stroke="#f4a6c8" stroke-width="1.8" stroke-linejoin="round"/>
  <path d="M12 14.4A3.4 3.4 0 1 0 12 7.6a3.4 3.4 0 0 0 0 6.8Z" stroke="#f4a6c8" stroke-width="1.8"/>
</svg>
